<svg xmlns="http://www.w3.org/2000/svg" viewBox="0 0 3686.4 1456.0">
<path transform="translate(12.0, 1426.0) scale(1,-1)" d="M269 539L778 539L781 520L263 520ZM323 6Q323 4 321 2Q319 0 316 0L-4 0Q-7 0 -9.5 2Q-12 4 -12 7Q-12 10 -8.5 11.5Q-5 13 -3 14L35 25Q67 36 99.5 71Q132 106 154 179L477 1279Q489 1318 477.5 1342Q466 1366 436 1379Q425 1386 419 1388Q413 1390 413 1394Q413 1398 415.5 1399Q418 1400 423 1400L812 1400Q816 1400 818 1399Q820 1398 820 1394Q820 1391 815.5 1388Q811 1385 798 1380Q775 1376 770 1366.5Q765 1357 774 1331L1176 67Q1184 43 1199 31Q1214 19 1238 16Q1244 14 1246.5 12.5Q1249 11 1249 6Q1249 4 1246.5 2Q1244 0 1240 0L799 0Q795 0 792.5 2Q790 4 790 6Q790 10 793 11.5Q796 13 802 14L849 21Q874 27 880 40.5Q886 54 878 79L493 1295L517 1347L172 176Q160 135 171.5 105Q183 75 211.5 54.5Q240 34 282 23L314 14Q319 13 321 11Q323 9 323 6Z M2484.59 412Q2475.59 319 2432.59 238Q2389.59 157 2319.59 97Q2249.59 37 2155.59 3.5Q2061.59 -30 1951.59 -30Q1751.59 -30 1606.09 59Q1460.59 148 1382.09 307.5Q1303.59 467 1303.59 680Q1303.59 845 1351.59 982Q1399.59 1119 1488.09 1218Q1576.59 1317 1699.09 1371.5Q1821.59 1426 1970.59 1426Q2065.59 1426 2130.59 1405Q2195.59 1384 2231.09 1362Q2266.59 1340 2274.59 1340Q2286.59 1340 2308.59 1361.5Q2330.59 1383 2352.09 1404.5Q2373.59 1426 2378.59 1426Q2383.59 1426 2386.59 1422.5Q2389.59 1419 2390.59 1410L2489.59 1016Q2491.59 1009 2490.59 1004Q2489.59 999 2482.59 997Q2476.59 996 2472.09 999.5Q2467.59 1003 2463.59 1012Q2409.59 1153 2341.59 1237.5Q2273.59 1322 2195.09 1360Q2116.59 1398 2029.59 1398Q1938.59 1398 1861.59 1357Q1784.59 1316 1727.09 1237Q1669.59 1158 1637.59 1043Q1605.59 928 1605.59 779Q1605.59 548 1667.59 393Q1729.59 238 1838.59 160.5Q1947.59 83 2090.59 83Q2239.59 83 2340.09 170.5Q2440.59 258 2472.59 414Q2474.59 419 2476.09 421.5Q2477.59 424 2480.59 424Q2483.59 424 2484.59 420.5Q2485.59 417 2484.59 412Z M2958.79 735L3224.79 735Q3307.79 735 3346.29 772.5Q3384.79 810 3396.79 910Q3397.79 916 3399.79 918Q3401.79 920 3403.79 920Q3410.79 920 3413.79 908L3518.79 562Q3519.79 557 3518.79 553.5Q3517.79 550 3514.79 550Q3512.79 549 3509.79 549Q3506.79 549 3502.79 553Q3457.79 619 3421.29 654Q3384.79 689 3344.79 702.5Q3304.79 716 3250.79 716L2958.79 716ZM2596.79 1394Q2596.79 1396 2599.29 1398Q2601.79 1400 2606.79 1400L3462.79 1400Q3484.79 1400 3503.29 1406.5Q3521.79 1413 3534.29 1419.5Q3546.79 1426 3550.79 1426Q3552.79 1426 3554.29 1423Q3555.79 1420 3559.79 1406L3648.79 1050Q3649.79 1043 3648.79 1040.5Q3647.79 1038 3644.79 1036Q3642.79 1036 3640.29 1037Q3637.79 1038 3634.79 1043Q3567.79 1147 3514.79 1213Q3461.79 1279 3417.29 1316Q3372.79 1353 3330.29 1366.5Q3287.79 1380 3241.79 1380L3008.79 1380L3008.79 64Q3008.79 41 3021.29 30.5Q3033.79 20 3058.79 20L3253.79 20Q3313.79 20 3370.29 51.5Q3426.79 83 3495.79 175Q3564.79 267 3658.79 444Q3661.79 448 3664.29 450.5Q3666.79 453 3669.79 451Q3673.79 451 3674.29 447Q3674.79 443 3672.79 436L3567.79 -6Q3564.79 -19 3562.79 -23Q3560.79 -27 3558.79 -27Q3552.79 -27 3539.79 -20Q3526.79 -13 3505.79 -6.5Q3484.79 0 3454.79 0L2606.79 0Q2601.79 0 2599.29 2Q2596.79 4 2596.79 6Q2596.79 13 2608.79 14L2690.79 26Q2709.79 29 2719.29 35.5Q2728.79 42 2728.79 54L2728.79 1346Q2728.79 1358 2719.29 1364.5Q2709.79 1371 2690.79 1374L2608.79 1386Q2596.79 1387 2596.79 1394Z"/>
</svg>
